<mxfile host="app.diagrams.net" modified="2022-09-19T14:41:10.266Z" agent="5.0 (Windows NT 10.0; Win64; x64) AppleWebKit/537.36 (KHTML, like Gecko) Chrome/105.0.0.0 Safari/537.36" version="20.3.3" etag="Jnm8xM5jF-frzBxX0Ka5" type="github">
  <diagram id="sZ0opgbdx6WAr5Ih1IuC" name="Page-1">
    <mxGraphModel dx="284" dy="161" grid="1" gridSize="10" guides="1" tooltips="1" connect="1" arrows="1" fold="1" page="1" pageScale="1" pageWidth="850" pageHeight="1100" math="0" shadow="0">
      <root>
        <mxCell id="0" />
        <mxCell id="1" parent="0" />
        <mxCell id="Gsfxx9Z68uU7SboIG1dY-45" value="STUDENT" style="rounded=0;whiteSpace=wrap;html=1;" vertex="1" parent="1">
          <mxGeometry x="20" y="30" width="120" height="60" as="geometry" />
        </mxCell>
        <mxCell id="Gsfxx9Z68uU7SboIG1dY-46" value="BOOK" style="rounded=0;whiteSpace=wrap;html=1;" vertex="1" parent="1">
          <mxGeometry x="670" y="30" width="120" height="60" as="geometry" />
        </mxCell>
        <mxCell id="Gsfxx9Z68uU7SboIG1dY-48" value="Login" style="rounded=1;whiteSpace=wrap;html=1;" vertex="1" parent="1">
          <mxGeometry x="350" y="220" width="120" height="90" as="geometry" />
        </mxCell>
        <mxCell id="Gsfxx9Z68uU7SboIG1dY-49" value="Search Book" style="rounded=1;whiteSpace=wrap;html=1;" vertex="1" parent="1">
          <mxGeometry x="350" y="350" width="120" height="90" as="geometry" />
        </mxCell>
        <mxCell id="Gsfxx9Z68uU7SboIG1dY-51" value="1.0" style="text;html=1;strokeColor=none;fillColor=none;align=center;verticalAlign=middle;whiteSpace=wrap;rounded=0;" vertex="1" parent="1">
          <mxGeometry x="200" y="100" width="60" height="30" as="geometry" />
        </mxCell>
        <mxCell id="Gsfxx9Z68uU7SboIG1dY-52" value="" style="endArrow=none;html=1;rounded=0;exitX=0;exitY=0.25;exitDx=0;exitDy=0;entryX=1;entryY=0.25;entryDx=0;entryDy=0;" edge="1" parent="1" source="Gsfxx9Z68uU7SboIG1dY-48" target="Gsfxx9Z68uU7SboIG1dY-48">
          <mxGeometry width="50" height="50" relative="1" as="geometry">
            <mxPoint x="390" y="280" as="sourcePoint" />
            <mxPoint x="440" y="230" as="targetPoint" />
          </mxGeometry>
        </mxCell>
        <mxCell id="Gsfxx9Z68uU7SboIG1dY-53" value="2.0" style="text;html=1;strokeColor=none;fillColor=none;align=center;verticalAlign=middle;whiteSpace=wrap;rounded=0;" vertex="1" parent="1">
          <mxGeometry x="380" y="220" width="60" height="30" as="geometry" />
        </mxCell>
        <mxCell id="Gsfxx9Z68uU7SboIG1dY-54" value="" style="endArrow=none;html=1;rounded=0;exitX=0;exitY=0.25;exitDx=0;exitDy=0;entryX=1;entryY=0.25;entryDx=0;entryDy=0;" edge="1" parent="1" source="Gsfxx9Z68uU7SboIG1dY-49" target="Gsfxx9Z68uU7SboIG1dY-49">
          <mxGeometry width="50" height="50" relative="1" as="geometry">
            <mxPoint x="390" y="410" as="sourcePoint" />
            <mxPoint x="440" y="360" as="targetPoint" />
          </mxGeometry>
        </mxCell>
        <mxCell id="Gsfxx9Z68uU7SboIG1dY-55" value="3.0" style="text;html=1;align=center;verticalAlign=middle;resizable=0;points=[];autosize=1;strokeColor=none;fillColor=none;" vertex="1" parent="1">
          <mxGeometry x="390" y="350" width="40" height="30" as="geometry" />
        </mxCell>
        <mxCell id="Gsfxx9Z68uU7SboIG1dY-56" value="" style="endArrow=none;html=1;rounded=0;entryX=0.25;entryY=0;entryDx=0;entryDy=0;exitX=0.25;exitY=1;exitDx=0;exitDy=0;" edge="1" parent="1">
          <mxGeometry width="50" height="50" relative="1" as="geometry">
            <mxPoint x="710" y="240" as="sourcePoint" />
            <mxPoint x="710" y="180" as="targetPoint" />
          </mxGeometry>
        </mxCell>
        <mxCell id="Gsfxx9Z68uU7SboIG1dY-57" value="" style="endArrow=none;html=1;rounded=0;entryX=0;entryY=0;entryDx=0;entryDy=0;exitX=1;exitY=0;exitDx=0;exitDy=0;" edge="1" parent="1">
          <mxGeometry width="50" height="50" relative="1" as="geometry">
            <mxPoint x="800" y="180" as="sourcePoint" />
            <mxPoint x="680" y="180" as="targetPoint" />
          </mxGeometry>
        </mxCell>
        <mxCell id="Gsfxx9Z68uU7SboIG1dY-58" value="" style="endArrow=none;html=1;rounded=0;entryX=0;entryY=0;entryDx=0;entryDy=0;exitX=0;exitY=1;exitDx=0;exitDy=0;" edge="1" parent="1">
          <mxGeometry width="50" height="50" relative="1" as="geometry">
            <mxPoint x="680" y="240" as="sourcePoint" />
            <mxPoint x="680" y="180" as="targetPoint" />
          </mxGeometry>
        </mxCell>
        <mxCell id="Gsfxx9Z68uU7SboIG1dY-59" value="" style="endArrow=none;html=1;rounded=0;" edge="1" parent="1">
          <mxGeometry width="50" height="50" relative="1" as="geometry">
            <mxPoint x="680" y="240" as="sourcePoint" />
            <mxPoint x="800" y="240" as="targetPoint" />
          </mxGeometry>
        </mxCell>
        <mxCell id="Gsfxx9Z68uU7SboIG1dY-60" value="Inventory File" style="text;html=1;strokeColor=none;fillColor=none;align=center;verticalAlign=middle;whiteSpace=wrap;rounded=0;" vertex="1" parent="1">
          <mxGeometry x="690" y="200" width="120" height="30" as="geometry" />
        </mxCell>
        <mxCell id="Gsfxx9Z68uU7SboIG1dY-61" value="Requested Book" style="rounded=1;whiteSpace=wrap;html=1;" vertex="1" parent="1">
          <mxGeometry x="350" y="490" width="120" height="90" as="geometry" />
        </mxCell>
        <mxCell id="Gsfxx9Z68uU7SboIG1dY-62" value="" style="endArrow=none;html=1;rounded=0;exitX=0;exitY=0.25;exitDx=0;exitDy=0;entryX=1;entryY=0.25;entryDx=0;entryDy=0;" edge="1" parent="1" source="Gsfxx9Z68uU7SboIG1dY-61" target="Gsfxx9Z68uU7SboIG1dY-61">
          <mxGeometry width="50" height="50" relative="1" as="geometry">
            <mxPoint x="390" y="480" as="sourcePoint" />
            <mxPoint x="440" y="430" as="targetPoint" />
          </mxGeometry>
        </mxCell>
        <mxCell id="Gsfxx9Z68uU7SboIG1dY-63" value="4.0" style="text;html=1;strokeColor=none;fillColor=none;align=center;verticalAlign=middle;whiteSpace=wrap;rounded=0;" vertex="1" parent="1">
          <mxGeometry x="380" y="490" width="60" height="30" as="geometry" />
        </mxCell>
        <mxCell id="Gsfxx9Z68uU7SboIG1dY-64" value="" style="endArrow=none;html=1;rounded=0;exitX=0.25;exitY=1;exitDx=0;exitDy=0;entryX=0.25;entryY=0;entryDx=0;entryDy=0;" edge="1" parent="1">
          <mxGeometry width="50" height="50" relative="1" as="geometry">
            <mxPoint x="150" y="370" as="sourcePoint" />
            <mxPoint x="150" y="310" as="targetPoint" />
          </mxGeometry>
        </mxCell>
        <mxCell id="Gsfxx9Z68uU7SboIG1dY-65" value="" style="endArrow=none;html=1;rounded=0;exitX=0;exitY=0;exitDx=0;exitDy=0;entryX=1;entryY=0;entryDx=0;entryDy=0;" edge="1" parent="1">
          <mxGeometry width="50" height="50" relative="1" as="geometry">
            <mxPoint x="120" y="310" as="sourcePoint" />
            <mxPoint x="240" y="310" as="targetPoint" />
          </mxGeometry>
        </mxCell>
        <mxCell id="Gsfxx9Z68uU7SboIG1dY-66" value="" style="endArrow=none;html=1;rounded=0;exitX=0;exitY=1;exitDx=0;exitDy=0;entryX=1;entryY=1;entryDx=0;entryDy=0;" edge="1" parent="1">
          <mxGeometry width="50" height="50" relative="1" as="geometry">
            <mxPoint x="120" y="370" as="sourcePoint" />
            <mxPoint x="240" y="370" as="targetPoint" />
          </mxGeometry>
        </mxCell>
        <mxCell id="Gsfxx9Z68uU7SboIG1dY-67" value="" style="endArrow=none;html=1;rounded=0;exitX=0;exitY=1;exitDx=0;exitDy=0;entryX=0;entryY=0;entryDx=0;entryDy=0;" edge="1" parent="1">
          <mxGeometry width="50" height="50" relative="1" as="geometry">
            <mxPoint x="120" y="370" as="sourcePoint" />
            <mxPoint x="120" y="310" as="targetPoint" />
          </mxGeometry>
        </mxCell>
        <mxCell id="Gsfxx9Z68uU7SboIG1dY-68" value="Database" style="text;html=1;strokeColor=none;fillColor=none;align=center;verticalAlign=middle;whiteSpace=wrap;rounded=0;" vertex="1" parent="1">
          <mxGeometry x="160" y="330" width="60" height="30" as="geometry" />
        </mxCell>
        <mxCell id="Gsfxx9Z68uU7SboIG1dY-69" value="" style="endArrow=classic;html=1;rounded=0;exitX=1;exitY=0.25;exitDx=0;exitDy=0;entryX=1;entryY=0.5;entryDx=0;entryDy=0;" edge="1" parent="1" source="Gsfxx9Z68uU7SboIG1dY-45" target="Gsfxx9Z68uU7SboIG1dY-48">
          <mxGeometry width="50" height="50" relative="1" as="geometry">
            <mxPoint x="390" y="260" as="sourcePoint" />
            <mxPoint x="440" y="210" as="targetPoint" />
            <Array as="points">
              <mxPoint x="570" y="45" />
              <mxPoint x="570" y="265" />
            </Array>
          </mxGeometry>
        </mxCell>
        <mxCell id="Gsfxx9Z68uU7SboIG1dY-70" value="Access from student" style="text;html=1;strokeColor=none;fillColor=none;align=center;verticalAlign=middle;whiteSpace=wrap;rounded=0;" vertex="1" parent="1">
          <mxGeometry x="180" y="20" width="180" height="30" as="geometry" />
        </mxCell>
        <mxCell id="Gsfxx9Z68uU7SboIG1dY-72" value="Credential Request" style="text;html=1;strokeColor=none;fillColor=none;align=center;verticalAlign=middle;whiteSpace=wrap;rounded=0;" vertex="1" parent="1">
          <mxGeometry x="410" y="180" width="100" height="30" as="geometry" />
        </mxCell>
        <mxCell id="Gsfxx9Z68uU7SboIG1dY-73" value="" style="endArrow=classic;html=1;rounded=0;exitX=0;exitY=0.43;exitDx=0;exitDy=0;exitPerimeter=0;" edge="1" parent="1" source="Gsfxx9Z68uU7SboIG1dY-48">
          <mxGeometry width="50" height="50" relative="1" as="geometry">
            <mxPoint x="390" y="400" as="sourcePoint" />
            <mxPoint x="170" y="310" as="targetPoint" />
            <Array as="points">
              <mxPoint x="170" y="259" />
            </Array>
          </mxGeometry>
        </mxCell>
        <mxCell id="Gsfxx9Z68uU7SboIG1dY-74" value="Credential Check" style="text;html=1;strokeColor=none;fillColor=none;align=center;verticalAlign=middle;whiteSpace=wrap;rounded=0;" vertex="1" parent="1">
          <mxGeometry x="190" y="230" width="130" height="30" as="geometry" />
        </mxCell>
        <mxCell id="Gsfxx9Z68uU7SboIG1dY-75" value="" style="endArrow=classic;html=1;rounded=0;entryX=0.5;entryY=0;entryDx=0;entryDy=0;exitX=0.5;exitY=1;exitDx=0;exitDy=0;" edge="1" parent="1" source="Gsfxx9Z68uU7SboIG1dY-48" target="Gsfxx9Z68uU7SboIG1dY-49">
          <mxGeometry width="50" height="50" relative="1" as="geometry">
            <mxPoint x="420" y="460" as="sourcePoint" />
            <mxPoint x="470" y="410" as="targetPoint" />
          </mxGeometry>
        </mxCell>
        <mxCell id="Gsfxx9Z68uU7SboIG1dY-76" value="Request for desired book" style="text;html=1;strokeColor=none;fillColor=none;align=center;verticalAlign=middle;whiteSpace=wrap;rounded=0;" vertex="1" parent="1">
          <mxGeometry x="400" y="320" width="130" height="30" as="geometry" />
        </mxCell>
        <mxCell id="Gsfxx9Z68uU7SboIG1dY-77" value="" style="endArrow=classic;html=1;rounded=0;exitX=1;exitY=0.5;exitDx=0;exitDy=0;" edge="1" parent="1" source="Gsfxx9Z68uU7SboIG1dY-49">
          <mxGeometry width="50" height="50" relative="1" as="geometry">
            <mxPoint x="420" y="360" as="sourcePoint" />
            <mxPoint x="740" y="240" as="targetPoint" />
            <Array as="points">
              <mxPoint x="740" y="395" />
            </Array>
          </mxGeometry>
        </mxCell>
        <mxCell id="Gsfxx9Z68uU7SboIG1dY-78" value="Searching the inventory file" style="text;html=1;strokeColor=none;fillColor=none;align=center;verticalAlign=middle;whiteSpace=wrap;rounded=0;" vertex="1" parent="1">
          <mxGeometry x="540" y="360" width="160" height="30" as="geometry" />
        </mxCell>
        <mxCell id="Gsfxx9Z68uU7SboIG1dY-79" value="" style="endArrow=classic;html=1;rounded=0;entryX=0.5;entryY=1;entryDx=0;entryDy=0;" edge="1" parent="1" target="Gsfxx9Z68uU7SboIG1dY-46">
          <mxGeometry width="50" height="50" relative="1" as="geometry">
            <mxPoint x="730" y="180" as="sourcePoint" />
            <mxPoint x="470" y="240" as="targetPoint" />
          </mxGeometry>
        </mxCell>
        <mxCell id="Gsfxx9Z68uU7SboIG1dY-80" value="Requested Book" style="text;html=1;strokeColor=none;fillColor=none;align=center;verticalAlign=middle;whiteSpace=wrap;rounded=0;" vertex="1" parent="1">
          <mxGeometry x="670" y="120" width="60" height="30" as="geometry" />
        </mxCell>
        <mxCell id="Gsfxx9Z68uU7SboIG1dY-81" value="" style="endArrow=classic;html=1;rounded=0;exitX=0.75;exitY=1;exitDx=0;exitDy=0;" edge="1" parent="1" source="Gsfxx9Z68uU7SboIG1dY-46">
          <mxGeometry width="50" height="50" relative="1" as="geometry">
            <mxPoint x="420" y="290" as="sourcePoint" />
            <mxPoint x="760" y="180" as="targetPoint" />
          </mxGeometry>
        </mxCell>
        <mxCell id="Gsfxx9Z68uU7SboIG1dY-82" value="Response" style="text;html=1;strokeColor=none;fillColor=none;align=center;verticalAlign=middle;whiteSpace=wrap;rounded=0;" vertex="1" parent="1">
          <mxGeometry x="760" y="120" width="60" height="30" as="geometry" />
        </mxCell>
        <mxCell id="Gsfxx9Z68uU7SboIG1dY-83" value="ADMIN" style="rounded=0;whiteSpace=wrap;html=1;" vertex="1" parent="1">
          <mxGeometry x="350" y="690" width="120" height="60" as="geometry" />
        </mxCell>
        <mxCell id="Gsfxx9Z68uU7SboIG1dY-84" value="" style="endArrow=classic;html=1;rounded=0;entryX=1;entryY=0.5;entryDx=0;entryDy=0;" edge="1" parent="1" target="Gsfxx9Z68uU7SboIG1dY-83">
          <mxGeometry width="50" height="50" relative="1" as="geometry">
            <mxPoint x="760" y="240" as="sourcePoint" />
            <mxPoint x="520" y="480" as="targetPoint" />
            <Array as="points">
              <mxPoint x="760" y="720" />
            </Array>
          </mxGeometry>
        </mxCell>
        <mxCell id="Gsfxx9Z68uU7SboIG1dY-85" value="Book issuing status" style="text;html=1;strokeColor=none;fillColor=none;align=center;verticalAlign=middle;whiteSpace=wrap;rounded=0;" vertex="1" parent="1">
          <mxGeometry x="560" y="690" width="110" height="30" as="geometry" />
        </mxCell>
        <mxCell id="Gsfxx9Z68uU7SboIG1dY-86" value="" style="endArrow=classic;html=1;rounded=0;exitX=0.5;exitY=0;exitDx=0;exitDy=0;" edge="1" parent="1" source="Gsfxx9Z68uU7SboIG1dY-83" target="Gsfxx9Z68uU7SboIG1dY-61">
          <mxGeometry width="50" height="50" relative="1" as="geometry">
            <mxPoint x="480" y="550" as="sourcePoint" />
            <mxPoint x="530" y="500" as="targetPoint" />
          </mxGeometry>
        </mxCell>
        <mxCell id="Gsfxx9Z68uU7SboIG1dY-87" value="Issuing the book" style="text;html=1;strokeColor=none;fillColor=none;align=center;verticalAlign=middle;whiteSpace=wrap;rounded=0;" vertex="1" parent="1">
          <mxGeometry x="410" y="620" width="60" height="30" as="geometry" />
        </mxCell>
        <mxCell id="Gsfxx9Z68uU7SboIG1dY-88" value="" style="endArrow=classic;html=1;rounded=0;entryX=1;entryY=0.5;entryDx=0;entryDy=0;" edge="1" parent="1" target="Gsfxx9Z68uU7SboIG1dY-61">
          <mxGeometry width="50" height="50" relative="1" as="geometry">
            <mxPoint x="750" y="240" as="sourcePoint" />
            <mxPoint x="530" y="390" as="targetPoint" />
            <Array as="points">
              <mxPoint x="750" y="535" />
            </Array>
          </mxGeometry>
        </mxCell>
        <mxCell id="Gsfxx9Z68uU7SboIG1dY-89" value="Book status" style="text;html=1;strokeColor=none;fillColor=none;align=center;verticalAlign=middle;whiteSpace=wrap;rounded=0;" vertex="1" parent="1">
          <mxGeometry x="560" y="500" width="90" height="30" as="geometry" />
        </mxCell>
        <mxCell id="Gsfxx9Z68uU7SboIG1dY-90" value="" style="endArrow=classic;html=1;rounded=0;entryX=0.25;entryY=1;entryDx=0;entryDy=0;exitX=0;exitY=0.5;exitDx=0;exitDy=0;" edge="1" parent="1" source="Gsfxx9Z68uU7SboIG1dY-61" target="Gsfxx9Z68uU7SboIG1dY-45">
          <mxGeometry width="50" height="50" relative="1" as="geometry">
            <mxPoint x="480" y="370" as="sourcePoint" />
            <mxPoint x="290" y="300" as="targetPoint" />
            <Array as="points">
              <mxPoint x="50" y="530" />
            </Array>
          </mxGeometry>
        </mxCell>
        <mxCell id="Gsfxx9Z68uU7SboIG1dY-91" value="Issued Book" style="text;html=1;strokeColor=none;fillColor=none;align=center;verticalAlign=middle;whiteSpace=wrap;rounded=0;" vertex="1" parent="1">
          <mxGeometry x="160" y="500" width="90" height="30" as="geometry" />
        </mxCell>
        <mxCell id="Gsfxx9Z68uU7SboIG1dY-92" value="" style="endArrow=classic;html=1;rounded=0;entryX=0;entryY=0.5;entryDx=0;entryDy=0;" edge="1" parent="1">
          <mxGeometry width="50" height="50" relative="1" as="geometry">
            <mxPoint x="130" y="310" as="sourcePoint" />
            <mxPoint x="200" y="135" as="targetPoint" />
            <Array as="points">
              <mxPoint x="130" y="135" />
            </Array>
          </mxGeometry>
        </mxCell>
        <mxCell id="Gsfxx9Z68uU7SboIG1dY-93" value="If no user found" style="text;html=1;strokeColor=none;fillColor=none;align=center;verticalAlign=middle;whiteSpace=wrap;rounded=0;rotation=-90;" vertex="1" parent="1">
          <mxGeometry x="70" y="200" width="90" height="30" as="geometry" />
        </mxCell>
        <mxCell id="Gsfxx9Z68uU7SboIG1dY-94" value="NAME" style="rounded=1;whiteSpace=wrap;html=1;" vertex="1" parent="1">
          <mxGeometry x="200" y="100" width="70" height="60" as="geometry" />
        </mxCell>
        <mxCell id="Gsfxx9Z68uU7SboIG1dY-95" value="1.0.1" style="text;html=1;strokeColor=none;fillColor=none;align=center;verticalAlign=middle;whiteSpace=wrap;rounded=0;" vertex="1" parent="1">
          <mxGeometry x="205" y="100" width="60" height="30" as="geometry" />
        </mxCell>
        <mxCell id="Gsfxx9Z68uU7SboIG1dY-96" value="Department" style="rounded=1;whiteSpace=wrap;html=1;" vertex="1" parent="1">
          <mxGeometry x="290" y="100" width="70" height="60" as="geometry" />
        </mxCell>
        <mxCell id="Gsfxx9Z68uU7SboIG1dY-97" value="1.0.2" style="text;html=1;strokeColor=none;fillColor=none;align=center;verticalAlign=middle;whiteSpace=wrap;rounded=0;" vertex="1" parent="1">
          <mxGeometry x="295" y="100" width="60" height="30" as="geometry" />
        </mxCell>
        <mxCell id="Gsfxx9Z68uU7SboIG1dY-98" value="" style="endArrow=classic;html=1;rounded=0;exitX=1;exitY=0.5;exitDx=0;exitDy=0;" edge="1" parent="1" source="Gsfxx9Z68uU7SboIG1dY-94">
          <mxGeometry width="50" height="50" relative="1" as="geometry">
            <mxPoint x="400" y="180" as="sourcePoint" />
            <mxPoint x="290" y="130" as="targetPoint" />
          </mxGeometry>
        </mxCell>
        <mxCell id="Gsfxx9Z68uU7SboIG1dY-99" value="Phone" style="rounded=1;whiteSpace=wrap;html=1;" vertex="1" parent="1">
          <mxGeometry x="370" y="100" width="70" height="60" as="geometry" />
        </mxCell>
        <mxCell id="Gsfxx9Z68uU7SboIG1dY-100" value="1.0.3" style="text;html=1;strokeColor=none;fillColor=none;align=center;verticalAlign=middle;whiteSpace=wrap;rounded=0;" vertex="1" parent="1">
          <mxGeometry x="375" y="100" width="60" height="30" as="geometry" />
        </mxCell>
        <mxCell id="Gsfxx9Z68uU7SboIG1dY-101" value="" style="endArrow=classic;html=1;rounded=0;exitX=1;exitY=0.5;exitDx=0;exitDy=0;" edge="1" parent="1" source="Gsfxx9Z68uU7SboIG1dY-96">
          <mxGeometry width="50" height="50" relative="1" as="geometry">
            <mxPoint x="350" y="180" as="sourcePoint" />
            <mxPoint x="370" y="130" as="targetPoint" />
          </mxGeometry>
        </mxCell>
        <mxCell id="Gsfxx9Z68uU7SboIG1dY-102" value="Unique Credential" style="rounded=1;whiteSpace=wrap;html=1;" vertex="1" parent="1">
          <mxGeometry x="460" y="100" width="70" height="70" as="geometry" />
        </mxCell>
        <mxCell id="Gsfxx9Z68uU7SboIG1dY-103" value="1.0.4" style="text;html=1;strokeColor=none;fillColor=none;align=center;verticalAlign=middle;whiteSpace=wrap;rounded=0;" vertex="1" parent="1">
          <mxGeometry x="465" y="100" width="60" height="30" as="geometry" />
        </mxCell>
        <mxCell id="Gsfxx9Z68uU7SboIG1dY-104" value="" style="endArrow=classic;html=1;rounded=0;entryX=0;entryY=0.429;entryDx=0;entryDy=0;entryPerimeter=0;exitX=1;exitY=0.5;exitDx=0;exitDy=0;" edge="1" parent="1" source="Gsfxx9Z68uU7SboIG1dY-99" target="Gsfxx9Z68uU7SboIG1dY-102">
          <mxGeometry width="50" height="50" relative="1" as="geometry">
            <mxPoint x="310" y="210" as="sourcePoint" />
            <mxPoint x="360" y="160" as="targetPoint" />
          </mxGeometry>
        </mxCell>
      </root>
    </mxGraphModel>
  </diagram>
</mxfile>
